HIERARCHY
ROOT HipCenter
{
    OFFSET 0.0 0.0 -0.0
    CHANNELS 6 Xposition Yposition Zposition Zrotation Xrotation Yrotation
    JOINT Spine
    {
        OFFSET 0.0 11.141894340515137 0.0
        CHANNELS 3 Zrotation Xrotation Yrotation
        JOINT ShoulderCenter
        {
            OFFSET 0.0 30.90260124206543 0.0
            CHANNELS 3 Zrotation Xrotation Yrotation
            JOINT LeftShoulder
            {
                OFFSET 18.54991912841797 0.0 0.0
                CHANNELS 3 Zrotation Xrotation Yrotation
                JOINT LeftElbow
                {
                    OFFSET 24.326644897460938 0.0 0.0
                    CHANNELS 3 Zrotation Xrotation Yrotation
                    JOINT LeftWrist
                    {
                        OFFSET 27.56737518310547 0.0 0.0
                        CHANNELS 3 Zrotation Xrotation Yrotation
                        JOINT LeftHand
                        {
                            OFFSET 2.7594430446624756 0.0 0.0
                            CHANNELS 3 Zrotation Xrotation Yrotation
                            End Site
                            {
                                OFFSET 1.1037771701812744 0.0 0.0
                            }
                        }
                    }
                }
            }
            JOINT RightShoulder
            {
                OFFSET -18.54991912841797 0.0 0.0
                CHANNELS 3 Zrotation Xrotation Yrotation
                JOINT RightElbow
                {
                    OFFSET -24.326644897460938 0.0 0.0
                    CHANNELS 3 Zrotation Xrotation Yrotation
                    JOINT RightWrist
                    {
                        OFFSET -27.56737518310547 0.0 0.0
                        CHANNELS 3 Zrotation Xrotation Yrotation
                        JOINT RightHand
                        {
                            OFFSET -2.7594430446624756 0.0 0.0
                            CHANNELS 3 Zrotation Xrotation Yrotation
                            End Site
                            {
                                OFFSET -1.1037771701812744 0.0 0.0
                            }
                        }
                    }
                }
            }
            End Site
            {
                OFFSET 0.0 12.361042022705078 0.0
            }
        }
    }
    JOINT LeftHip
    {
        OFFSET 21.544754028320312 0.0 0.0
        CHANNELS 3 Zrotation Xrotation Yrotation
        JOINT LeftKnee
        {
            OFFSET 0.0 -35.15361785888672 0.0
            CHANNELS 3 Zrotation Xrotation Yrotation
            JOINT LeftAnkle
            {
                OFFSET 0.0 -39.301700592041016 0.0
                CHANNELS 3 Zrotation Xrotation Yrotation
                JOINT LeftFoot
                {
                    OFFSET 0.0 -9.149667739868164 0.0
                    CHANNELS 3 Zrotation Xrotation Yrotation
                    End Site
                    {
                        OFFSET 0.0 0.0 3.6598663330078125
                    }
                }
            }
        }
    }
    JOINT RightHip
    {
        OFFSET -21.544754028320312 0.0 0.0
        CHANNELS 3 Zrotation Xrotation Yrotation
        JOINT RightKnee
        {
            OFFSET 0.0 -35.15361785888672 0.0
            CHANNELS 3 Zrotation Xrotation Yrotation
            JOINT RightAnkle
            {
                OFFSET 0.0 -39.301700592041016 0.0
                CHANNELS 3 Zrotation Xrotation Yrotation
                JOINT RightFoot
                {
                    OFFSET 0.0 -9.149667739868164 0.0
                    CHANNELS 3 Zrotation Xrotation Yrotation
                    End Site
                    {
                        OFFSET 0.0 0.0 3.6598663330078125
                    }
                }
            }
        }
    }
}
MOTION
Frames: 5
Frame Time: 0.03333333333333333
126.19999694824219 -11.5 27.599998474121094 11.915162365695043 3.595544874895864 -91.14216213940549 4.957702877061359 -11.260287692382036 -0.5245586460234894 -1.3777076885968415e-07 -2.151976047349444e-08 -3.231377176977022 102.85873148757263 17.196826295038665 164.8569947089509 -3.489749798717176e-06 5.008407760780166e-06 52.65594806317144 -179.99998680317452 -82.1410256243932 -142.34554682875242 -2.385416011097637e-15 -1.6552148617688094e-31 7.95138670365879e-15 -107.40610664817017 -13.946932583325568 -169.30072535050985 1.8930167769692672e-06 -1.1522733425204012e-06 -39.471644073653806 -179.99999975941526 -65.91630877749866 156.63500309047498 -6.3611093629270335e-15 -1.7655625192200634e-31 3.1805546814635168e-15 -12.027590159583012 -12.044353478408182 -24.20088382374655 -1.5241851132873028 11.582366262414913 -1.5949035939760303 -142.15154774068932 -74.47496152542757 -135.48265397763728 0.0 0.0 0.0 7.445481066366277 -36.27518482930526 8.516955031188347 18.403857328185303 51.19198827856115 12.132535784090281 -95.54148077958264 -37.13917284828928 -114.13289912121715 -6.3611093629270335e-15 0.0 0.0
119.9000015258789 -11.59999942779541 27.000001907348633 12.417492981924116 3.588763260057289 -88.78594701197511 4.476731292052346 -11.585637641803176 -0.7682819384759839 3.803713787636145e-08 9.539634828539265e-08 -5.051006915998021 103.31773454522005 11.958270260369083 167.41756398590064 3.845116320150455e-06 -1.6495433464154774e-06 55.524147000999314 179.9999897764822 -80.16152768682507 -140.37363812576297 1.5902773407317584e-15 -4.770832022195275e-15 1.5902773407317584e-15 -107.37538589313448 -10.583327477553569 -166.43171063534888 4.1328963377692007e-07 4.644873412383687e-06 -38.88331041877205 -179.9999912916165 -63.82805123183867 155.63666990157986 -6.361109362927035e-15 -4.4139062980501586e-32 7.951386703658794e-16 -12.493371887673142 -6.746539633289758 -25.305951147336234 -0.9674612008774981 9.58185845432288 -0.7907242114198133 -128.39392239960443 -72.60836141961124 -124.96915572398652 -6.361109362927032e-15 6.361109362927032e-15 3.531125038440127e-31 7.675361583974275 -41.13867890571114 5.71355029146378 6.447820984606651 35.40953535769576 17.40218742677274 -98.73507991562795 -42.4457869337474 -132.2966637549455 6.3611093629270335e-15 0.0 0.0
113.0 -12.199999809265137 26.30000114440918 11.915163854704323 3.5955442022310815 -86.42266695372935 4.204609346226903 -11.455214897268991 -0.878913313501742 -9.618290524352322e-08 -2.3991667717842113e-08 -6.691685503751632 103.01403669668866 7.709715935438517 170.32849532419044 1.0303946793664302e-06 1.0298542462544721e-06 55.82630582063915 -179.99999891791424 -84.43856738128402 -141.6156477211201 -3.1805546814635164e-15 -3.1805546814635164e-15 -8.827812596100317e-32 -107.56081301532147 -7.863394646358684 -162.944269222358 -1.6793367699283316e-06 -2.555563502057812e-06 -37.41757150141979 179.9999990291874 -66.24865414887827 156.78224482671982 6.3611093629270335e-15 3.1805546814635168e-15 -1.7655625192200634e-31 -12.122329889704453 -0.2846449735972835 -25.324271458830818 -0.404959371316765 7.152967443470903 -0.37490163149570815 -117.08028937498372 -69.89005451979833 -115.46691404827831 0.0 0.0 0.0 8.219475928765878 -38.9156054199161 6.537589180332637 0.3682215664319106 11.910094706487149 7.879375356861128 -101.84654938591261 -57.394950251022834 -139.75977603518623 7.951386703658793e-15 0.0 0.0
105.5999984741211 -13.40000057220459 25.400001525878906 11.915123014279535 3.0829572547592154 -84.9919004063788 4.079410691540466 -12.496752341319924 -0.9558371365250238 2.4484634634546172e-08 -1.5311606234366656e-07 -7.483784326833826 102.3042241303646 5.0600028437702145 171.02730283216155 -4.1557436138965755e-06 2.172847536184327e-08 57.23079350300244 179.99999939787756 -82.30748057497121 -142.63394999915755 -2.3854160110976376e-15 -3.1805546814635164e-15 -7.156248033292912e-15 -108.22920245976583 -5.855383108714486 -159.4764126909308 -5.622385804643789e-06 -1.0731510917705913e-06 -35.53539453683796 -179.9999909553448 -62.28820690408968 157.57859618495314 -6.361109362927033e-15 -3.1805546814635168e-15 5.5659706925611536e-15 -11.8169644211595 6.085794093635609 -25.785237968166857 -0.32971370861647264 5.105769948378875 -0.08942477916070614 -111.28473447435802 -68.4792306464612 -111.66747648693632 0.0 -6.361109362927033e-15 0.0 8.689400943223868 -35.40582881430978 9.210236172231482 -0.03998492403419447 -0.09512227215035982 -0.06331672081090535 -146.5908152543912 -56.36628843309692 179.80181608280088 2.782985346280577e-15 0.0 0.0
97.39999389648438 -14.699999809265137 24.399999618530273 11.309878255539369 2.0421554557685826 -84.64625185808121 3.627079178417388 -13.545806166627116 -1.0047979991168245 -8.009210802374861e-08 1.8473267674897134e-07 -7.4088905311612265 101.5291014668916 6.644056088536008 169.4651562895123 2.262025390450602e-06 2.7115138305473753e-06 57.49638825240335 179.99998063367138 -83.64551132060159 -140.07214164592065 -4.770832022195275e-15 6.620859447075238e-32 -1.5902773407317584e-15 -108.93906065389058 -4.543864208746524 -156.5284469140039 4.2561073877320326e-06 -1.4224525474553684e-06 -34.021640088189926 -179.9999952534421 -64.1272509528167 155.13074390951238 0.0 0.0 -6.3611093629270335e-15 -11.913091409396452 9.857832583229204 -25.19258952306999 -1.1938185007150248 9.38029083926625 0.11345820148234773 -99.88314772279624 -71.98863773856617 -101.10135337890308 2.648343778830095e-31 6.3611093629270335e-15 -4.770832022195275e-15 8.985057600833066 -34.63322010885023 9.189863947190467 -0.194118177133646 5.533544983675866 3.5588305029014666 -116.24479966183002 -56.04188060015518 -153.41284445799985 1.1927080055488188e-15 0.0 0.0
